<svg xmlns="http://www.w3.org/2000/svg" width="144.374" height="33.453" viewBox="0 0 144.374 33.453">
  <g id="taxbit-black" transform="translate(-9.3 -6.4)">
    <path id="Path_1" data-name="Path 1" d="M201.663,6.7H182.773l-3.206,7.426L168.5,40.143h8.261l11.067-26.018H198.5Z" transform="translate(-153.944 -0.29)" fill="#135fe2"/>
    <path id="Path_2" data-name="Path 2" d="M12.991,6.7H25.574l-3.143,7.426L11.258,40.143H9.3L20.473,14.126H9.8Z" transform="translate(0 -0.29)" fill="#135fe2"/>
    <path id="Path_3" data-name="Path 3" d="M1920.176,32.209l6.072-8.746L1919.1,6.7h8.828l3.791,8.888,6.168-8.888h8.829l-11.639,16.763,7.1,16.654h-8.829l-3.744-8.776-6.082,8.759-3.348-7.891Z" transform="translate(-1846.744 -0.29)" fill="#135fe2"/>
    <path id="Path_4" data-name="Path 4" d="M877.093,40.143l-2.262-5.755H860.667l-2.212,5.755H849.6L863.814,6.7h7.967l14.164,33.443ZM863.372,27.455h8.753l-4.378-11.262-4.375,11.262Z" transform="translate(-812.555 -0.29)" fill="#135fe2"/>
    <path id="Path_5" data-name="Path 5" d="M2865.987,37.743v2.031H2861.1V6.4h5.036V19.871a9.72,9.72,0,0,1,3.331-2.394,10.331,10.331,0,0,1,4.219-.865,11.274,11.274,0,0,1,5.726,1.506,10.967,10.967,0,0,1,4.12,4.147,11.6,11.6,0,0,1,1.506,5.847,11.485,11.485,0,0,1-1.579,5.973,11.148,11.148,0,0,1-4.341,4.17,12.687,12.687,0,0,1-6.171,1.506,12.466,12.466,0,0,1-6.072-1.479c-.307-.168-.6-.347-.888-.538Zm10.661-3.312a6.789,6.789,0,0,0,2.565-2.592,7.668,7.668,0,0,0,.023-7.307,6.709,6.709,0,0,0-2.516-2.592,6.971,6.971,0,0,0-3.579-.938,7.237,7.237,0,0,0-3.628.938,6.71,6.71,0,0,0-2.592,2.615,7.44,7.44,0,0,0-.938,3.7,7.22,7.22,0,0,0,.914,3.6,6.733,6.733,0,0,0,2.516,2.565,6.971,6.971,0,0,0,3.579.938A7.138,7.138,0,0,0,2876.648,34.432Z" transform="translate(-2757.641 0)" fill="#135fe2"/>
    <path id="Path_6" data-name="Path 6" d="M3705.3,315.8h4.986v22.921H3705.3Z" transform="translate(-3573.968 -299.184)" fill="#135fe2"/>
    <path id="Path_7" data-name="Path 7" d="M3705.4,6.4h4.982v4.982H3705.4Z" transform="translate(-3574.065 0)" fill="#135fe2"/>
    <path id="Path_8" data-name="Path 8" d="M3981.11,21.012V32.268a3.342,3.342,0,0,0,.815,2.394,2.946,2.946,0,0,0,2.245.865c.462,0,2.595.01,3.011.01v4.431h-3.949A6.966,6.966,0,0,1,3978,38.042a7.244,7.244,0,0,1-1.875-5.283V21.012H3973.7V16.766h2.423V6.6h4.986V16.766h6.071v4.246Z" transform="translate(-3833.507 -0.193)" fill="#135fe2"/>
  </g>
</svg>
